<svg width="24" height="47" viewBox="0 0 24 47" fill="none" xmlns="http://www.w3.org/2000/svg">
<path d="M18 8.01562V6H6V8.01562H18ZM14.0156 14.0156V12H6V14.0156H14.0156ZM6 9V11.0156H18V9H6ZM20.0156 2.01562C20.5469 2.01562 21 2.21875 21.375 2.625C21.7812 3 21.9844 3.45313 21.9844 3.98438V15.9844C21.9844 16.5156 21.7812 16.9844 21.375 17.3906C21 17.7969 20.5469 18 20.0156 18H6L2.01562 21.9844V3.98438C2.01562 3.45313 2.20312 3 2.57812 2.625C2.98438 2.21875 3.45312 2.01562 3.98438 2.01562H20.0156Z" fill="#888888"/>
<path d="M7.44 32.165L5.175 33.8V32.345L7.65 30.515H8.97V41H7.44V32.165ZM10.6242 39.995L12.8892 37.82C13.0892 37.62 13.3692 37.36 13.7292 37.04C14.2992 36.52 14.7342 36.1 15.0342 35.78C15.3342 35.46 15.5792 35.12 15.7692 34.76C15.9592 34.39 16.0542 33.995 16.0542 33.575C16.0542 32.955 15.8742 32.485 15.5142 32.165C15.1542 31.835 14.6292 31.67 13.9392 31.67C13.4692 31.67 12.9842 31.755 12.4842 31.925C11.9942 32.095 11.5342 32.345 11.1042 32.675V31.205C11.9442 30.595 12.9692 30.29 14.1792 30.29C15.2592 30.29 16.0992 30.58 16.6992 31.16C17.2992 31.73 17.5992 32.51 17.5992 33.5C17.5992 33.98 17.4942 34.44 17.2842 34.88C17.0842 35.32 16.7992 35.755 16.4292 36.185C16.0592 36.605 15.5592 37.12 14.9292 37.73L12.8892 39.725H17.9892V41H10.6242V39.995Z" fill="#888888"/>
</svg>
