<svg width="24" height="47" viewBox="0 0 24 47" fill="none" xmlns="http://www.w3.org/2000/svg">
<path d="M18 16.0781C18.8125 16.0781 19.5 16.375 20.0625 16.9688C20.625 17.5312 20.9062 18.2031 20.9062 18.9844C20.9062 19.7969 20.6094 20.5 20.0156 21.0938C19.4531 21.6562 18.7812 21.9375 18 21.9375C17.2188 21.9375 16.5312 21.6562 15.9375 21.0938C15.375 20.5 15.0938 19.7969 15.0938 18.9844C15.0938 18.6719 15.1094 18.4531 15.1406 18.3281L8.0625 14.2031C7.46875 14.7344 6.78125 15 6 15C5.1875 15 4.48438 14.7031 3.89062 14.1094C3.29688 13.5156 3 12.8125 3 12C3 11.1875 3.29688 10.4844 3.89062 9.89062C4.48438 9.29688 5.1875 9 6 9C6.78125 9 7.46875 9.26562 8.0625 9.79688L15.0938 5.71875C15.0312 5.40625 15 5.17187 15 5.01562C15 4.20313 15.2969 3.5 15.8906 2.90625C16.4844 2.3125 17.1875 2.01562 18 2.01562C18.8125 2.01562 19.5156 2.3125 20.1094 2.90625C20.7031 3.5 21 4.20313 21 5.01562C21 5.82812 20.7031 6.53125 20.1094 7.125C19.5156 7.71875 18.8125 8.01562 18 8.01562C17.25 8.01562 16.5625 7.73438 15.9375 7.17188L8.90625 11.2969C8.96875 11.6094 9 11.8438 9 12C9 12.1562 8.96875 12.3906 8.90625 12.7031L16.0312 16.8281C16.5938 16.3281 17.25 16.0781 18 16.0781Z" fill="#888888"/>
<path d="M7.44 32.165L5.175 33.8V32.345L7.65 30.515H8.97V41H7.44V32.165ZM10.6242 39.995L12.8892 37.82C13.0892 37.62 13.3692 37.36 13.7292 37.04C14.2992 36.52 14.7342 36.1 15.0342 35.78C15.3342 35.46 15.5792 35.12 15.7692 34.76C15.9592 34.39 16.0542 33.995 16.0542 33.575C16.0542 32.955 15.8742 32.485 15.5142 32.165C15.1542 31.835 14.6292 31.67 13.9392 31.67C13.4692 31.67 12.9842 31.755 12.4842 31.925C11.9942 32.095 11.5342 32.345 11.1042 32.675V31.205C11.9442 30.595 12.9692 30.29 14.1792 30.29C15.2592 30.29 16.0992 30.58 16.6992 31.16C17.2992 31.73 17.5992 32.51 17.5992 33.5C17.5992 33.98 17.4942 34.44 17.2842 34.88C17.0842 35.32 16.7992 35.755 16.4292 36.185C16.0592 36.605 15.5592 37.12 14.9292 37.73L12.8892 39.725H17.9892V41H10.6242V39.995Z" fill="#888888"/>
</svg>
